<?xml version="1.0" encoding="UTF-8" standalone="no"?>
<svg
   viewBox="0 0 766 224"
   fill="currentColor"
   version="1.1"
   id="svg7"
   sodipodi:docname="Calque_1.svg"
   inkscape:version="1.3 (0e150ed6c4, 2023-07-21)"
   xmlns:inkscape="http://www.inkscape.org/namespaces/inkscape"
   xmlns:sodipodi="http://sodipodi.sourceforge.net/DTD/sodipodi-0.dtd"
   xmlns="http://www.w3.org/2000/svg"
   xmlns:svg="http://www.w3.org/2000/svg">
  <sodipodi:namedview
     id="namedview7"
     pagecolor="#ffffff"
     bordercolor="#000000"
     borderopacity="0.25"
     inkscape:showpageshadow="2"
     inkscape:pageopacity="0.0"
     inkscape:pagecheckerboard="0"
     inkscape:deskcolor="#d1d1d1"
     inkscape:zoom="1.7650131"
     inkscape:cx="371.10207"
     inkscape:cy="148.72411"
     inkscape:window-width="1920"
     inkscape:window-height="991"
     inkscape:window-x="-9"
     inkscape:window-y="-9"
     inkscape:window-maximized="1"
     inkscape:current-layer="g7" />
  <g
     clip-path="url(#clip0_4_10)"
     id="g7">
    <path
       d="M111.684 0C116.931 0.822773 122.177 1.49128 127.398 2.46832C140.45 4.88522 151.89 11.3388 164.686 17.8182C163.125 18.8466 161.973 19.3866 161.128 20.2351C133.361 47.7466 105.644 75.2837 77.9025 102.821C74.3452 106.369 74.4732 106.935 78.0305 110.38C90.9034 122.876 103.725 135.449 116.547 148.022C116.879 148.356 117.135 148.793 117.826 149.668C111.428 149.668 105.517 149.462 99.6559 149.719C94.8702 149.925 91.4408 148.202 88.1138 144.757C76.4182 132.672 64.3899 120.896 52.5151 108.992C51.7217 108.22 50.9796 107.398 49.8791 106.215C53.7947 102.435 57.6335 98.887 61.3188 95.1589C84.3774 71.9412 107.436 48.6979 130.469 25.4545C130.75 25.1717 131.058 24.8889 131.339 24.5803C133.745 22.0349 133.258 20.2865 129.906 19.3609C118.927 16.3269 107.769 15.427 96.4569 16.7897C79.9755 18.7952 64.9785 24.6061 51.6706 34.7107C49.9047 36.0477 49.5464 37.1791 50.135 39.3388C53.9483 53.6859 43.4299 65.8476 28.6376 64.5106C27.7418 64.4334 26.2831 65.4619 25.848 66.3618C19.0661 79.9118 15.4576 94.2847 16.0206 109.429C16.8908 133.315 25.6177 153.987 42.5085 170.957C52.208 180.676 63.7501 187.567 76.5206 192.477C78.3632 193.197 79.4637 192.812 80.7433 191.372C89.8797 181.164 105.337 182.733 112.171 194.637C113.578 197.106 115.011 197.491 117.57 197.08C129.42 195.229 140.552 191.346 151.045 185.612C153.118 184.481 154.449 184.584 156.061 186.384C158.851 189.495 161.896 192.375 165.325 195.846C160.412 198.52 155.984 201.194 151.352 203.431C140.194 208.804 128.396 212.044 116.009 212.918C113.86 213.073 112.222 213.715 110.942 215.721C107.973 220.349 103.188 222.406 98.146 223.949H92.6181C91.4664 223.563 90.3404 223.177 89.1887 222.792C83.6608 220.889 79.566 217.315 77.4163 211.864C76.5462 209.704 75.2921 208.65 73.1936 207.956C40.5124 196.926 18.2727 174.634 6.32118 142.623C-4.58109 113.44 -0.716671 84.5657 12.6169 56.7456C13.487 54.9458 13.8709 53.4545 13.1543 51.3205C8.49652 37.4619 19.7315 23.8604 34.0887 25.8145C36.2385 26.0973 37.9275 25.5831 39.6934 24.1947C52.1056 14.5271 65.7974 7.2764 81.0504 3.34252C87.2437 1.74839 93.6929 1.07989 100.014 0C103.904 0 107.794 0 111.684 0Z"
       
       id="path1"
       style="fill-opacity:1" />
    <path
       d="M164.711 36.0735C167.271 33.6823 170.418 30.9054 173.362 27.9229C174.897 26.3802 175.921 26.5601 177.431 27.9229C185.185 34.9164 191.737 42.8613 197.239 51.7319C198.007 52.9403 199.491 54.0716 200.873 54.483C214.488 58.494 219.837 73.0726 212.185 85.0542C211.238 86.5455 211.161 88.9109 211.392 90.7879C215.384 121.668 208.397 149.513 188.896 173.914C185.39 178.31 181.372 182.27 176.944 187.104C150.738 159.927 124.864 133.084 98.9906 106.241C98.5556 106.523 98.1205 106.806 97.6854 107.089C98.402 106.266 99.093 105.418 99.8608 104.646C111.249 93.1276 122.689 81.6345 134.026 70.0643C135.895 68.1616 137.814 67.2874 140.501 67.3388C147.13 67.4931 153.758 67.3903 161.103 67.3903C159.619 69.0872 158.569 70.3985 157.392 71.5813C147.002 82.0716 136.586 92.5363 126.17 103.027C123.175 106.035 123.201 106.343 126.246 109.377C142.318 125.37 158.365 141.363 174.436 157.355C178.122 161.032 178.941 160.929 181.858 156.61C193.963 138.689 198.34 118.865 196.343 97.4472C196.062 94.4647 195.013 93.1534 191.89 92.5363C178.275 89.8366 172.184 73.124 180.758 61.9651C182.831 59.2654 182.805 57.6198 180.732 55.2287C178.019 52.1433 175.614 48.8265 172.978 45.6896C170.367 42.5528 167.629 39.4931 164.686 36.0735H164.711Z"
       
       id="path2"
       style="fill-opacity:1" />
    <path
       d="M391.586 70.9642C396.449 70.9642 400.851 70.8099 405.201 71.0927C406.071 71.1442 407.249 72.764 407.607 73.8696C413.263 91.3535 418.791 108.863 424.37 126.347C424.703 127.376 425.086 128.404 425.726 130.255C428.951 120.459 431.868 111.537 434.811 102.615C438.01 92.8705 441.286 83.1515 444.383 73.3554C444.997 71.4013 445.867 70.7585 447.812 70.887C450.858 71.1185 454.62 70.0643 456.744 71.5298C458.715 72.8926 458.996 76.775 459.943 79.6033C465.113 95.2874 470.231 110.997 475.375 126.681C475.657 127.53 475.989 128.378 476.629 130.101C477.218 128.378 477.55 127.401 477.857 126.424C483.411 109.017 488.99 91.6364 494.416 74.2039C495.235 71.5556 496.386 70.6556 499.125 70.887C502.682 71.1699 506.265 70.9642 510.232 70.9642C508.568 75.8237 507.033 80.3747 505.471 84.8999C498.126 106.343 490.73 127.787 483.437 149.256C482.746 151.262 481.901 151.982 479.802 151.853C476.757 151.647 473.686 151.802 470.436 151.802C464.012 132.904 457.614 114.083 450.96 94.5675C450.346 96.2387 449.911 97.2415 449.578 98.27C443.82 115.163 438.036 132.055 432.406 148.999C431.664 151.262 430.64 152.084 428.311 151.853C425.368 151.57 421.683 152.676 419.686 151.262C417.69 149.848 417.332 146.042 416.385 143.24C408.503 120.356 400.62 97.4472 392.763 74.5638C392.431 73.6125 392.149 72.6354 391.637 70.9899L391.586 70.9642Z"
       
       id="path3"
       style="fill-opacity:1" />
    <path
       d="M311.38 111.023C311.969 110.097 312.455 109.069 313.197 108.272C324.202 96.4959 335.258 84.7713 346.211 72.9697C347.593 71.4784 348.975 70.8613 350.997 70.9128C355.501 71.0413 360.005 70.9642 365.354 70.9642C354.119 82.6887 343.345 93.9504 332.34 105.469C343.729 120.562 355.092 135.603 366.838 151.185C361.029 151.185 355.783 151.262 350.536 151.107C349.794 151.107 348.95 149.976 348.361 149.205C340.351 138.663 332.391 128.095 324.407 117.528C323.92 116.885 323.409 116.242 323.153 115.96C319.135 119.739 315.065 123.467 311.175 127.35C310.51 128.018 310.382 129.407 310.382 130.487C310.305 137.275 310.357 144.037 310.357 151.056H296.614V71.1185H310.28V110.329L311.406 111.023H311.38Z"
       
       id="path4"
       style="fill-opacity:1" />
    <path
       d="M676.453 151.21C670.874 151.21 666.062 151.339 661.277 151.107C660.125 151.056 658.692 150.053 657.924 149.076C649.939 138.663 642.031 128.147 634.123 117.657C633.56 116.937 632.997 116.217 632.741 115.908C628.749 119.636 624.731 123.287 620.892 127.118C620.176 127.838 619.971 129.33 619.945 130.487C619.869 137.249 619.894 144.037 619.894 150.979H606.125V71.1956H619.766V111.203C621.123 109.866 621.89 109.172 622.581 108.426C633.688 96.5987 644.744 84.7456 655.928 73.0211C656.977 71.9412 658.82 71.1699 660.33 71.0927C664.911 70.8356 669.517 70.9899 674.917 70.9899C663.682 82.7144 652.882 94.0018 641.878 105.495C653.318 120.639 664.655 135.655 676.402 151.236L676.453 151.21Z"
       
       id="path5"
       style="fill-opacity:1" />
    <path
       d="M763.645 80.8375C761.086 84.4885 758.732 87.8567 756.224 91.4307C754.535 90.3765 752.948 89.3223 751.284 88.371C744.554 84.5142 737.49 82.0716 729.608 83.8972C725.897 84.7713 723.056 86.8283 721.904 90.6593C720.727 94.5675 722.237 98.6042 726.23 100.455C730.171 102.307 734.445 103.464 738.616 104.826C743.274 106.369 748.085 107.475 752.59 109.326C760.958 112.771 766 118.814 765.974 128.378C765.974 138.226 761.649 145.374 752.717 149.385C743.53 153.499 734.01 153.139 724.489 150.593C716.914 148.588 710.388 144.68 704.399 139.074C707.163 135.783 709.876 132.518 712.666 129.175C715.199 130.949 717.528 132.749 720.036 134.292C727.074 138.689 734.701 140.437 742.916 138.843C744.477 138.534 746.089 137.943 747.471 137.12C753.716 133.366 753.716 124.856 747.164 121.745C742.404 119.482 737.157 118.325 732.116 116.68C728.149 115.394 724.054 114.365 720.19 112.797C703.248 105.881 704.732 84.1543 716.197 75.9265C722.135 71.6584 728.763 70.27 735.903 70.3471C746.319 70.4757 755.456 73.9724 763.671 80.8375H763.645Z"
       
       id="path6"
       style="fill-opacity:1" />
    <path
       d="M548.646 71.067H562.261V151.03H548.646V71.067Z"
       
       id="path7"
       style="fill-opacity:1" />
  </g>
  <defs
     id="defs7">
    <clipPath
       id="clip0_4_10">
      <rect
         width="766"
         height="224"
         
         id="rect7" />
    </clipPath>
  </defs>
</svg>
