<svg width="9" height="14" viewBox="0 0 9 14" fill="none" xmlns="http://www.w3.org/2000/svg">
<path d="M0.566667 13.3333C0.366667 13.1333 0.266667 12.8889 0.266667 12.6C0.266667 12.3111 0.366667 12.0667 0.566667 11.8667L5.45 6.98333L0.55 2.08333C0.35 1.88333 0.25 1.64444 0.25 1.36667C0.25 1.08889 0.355555 0.844443 0.566667 0.633332C0.766667 0.433332 1.01111 0.333332 1.3 0.333332C1.58889 0.333332 1.83333 0.433332 2.03333 0.633332L7.76667 6.36667C7.85556 6.45555 7.91956 6.55289 7.95867 6.65867C7.99733 6.764 8.01667 6.87222 8.01667 6.98333C8.01667 7.09444 7.99733 7.20266 7.95867 7.308C7.91956 7.41378 7.85556 7.51111 7.76667 7.6L2.01667 13.35C1.81667 13.55 1.57778 13.65 1.3 13.65C1.02222 13.65 0.777778 13.5444 0.566667 13.3333Z" fill="#94A3B8"/>
</svg>
