<svg width="18" height="17" viewBox="0 0 18 17" fill="none" xmlns="http://www.w3.org/2000/svg">
<path d="M2.33335 16.5C1.87502 16.5 1.48266 16.3368 1.15627 16.0104C0.829881 15.684 0.666687 15.2917 0.666687 14.8333V5.66666C0.666687 5.20832 0.829881 4.81596 1.15627 4.48957C1.48266 4.16318 1.87502 3.99999 2.33335 3.99999H5.66669V2.33332C5.66669 1.87499 5.82988 1.48263 6.15627 1.15624C6.48266 0.829851 6.87502 0.666656 7.33335 0.666656H10.6667C11.125 0.666656 11.5174 0.829851 11.8438 1.15624C12.1702 1.48263 12.3334 1.87499 12.3334 2.33332V3.99999H15.6667C16.125 3.99999 16.5174 4.16318 16.8438 4.48957C17.1702 4.81596 17.3334 5.20832 17.3334 5.66666V14.8333C17.3334 15.2917 17.1702 15.684 16.8438 16.0104C16.5174 16.3368 16.125 16.5 15.6667 16.5H2.33335ZM7.33335 3.99999H10.6667V2.33332H7.33335V3.99999ZM15.6667 11.5H11.5V13.1667H6.50002V11.5H2.33335V14.8333H15.6667V11.5ZM8.16669 11.5H9.83335V9.83332H8.16669V11.5ZM2.33335 9.83332H6.50002V8.16666H11.5V9.83332H15.6667V5.66666H2.33335V9.83332Z" fill="#64748B"/>
</svg>
