<svg width="14" height="20" fill="currentColor" xmlns="http://www.w3.org/2000/svg">
<path d="M1.66661 12.8333H4.45508V8.63458C4.45508 8.42117 4.52727 8.24229 4.67163 8.09793C4.81599 7.95357 4.99488 7.88139 5.20829 7.88139H8.12492C8.33834 7.88139 8.51722 7.95357 8.66158 8.09793C8.80595 8.24229 8.87813 8.42117 8.87813 8.63458V12.8333H11.6666V5.46151C11.6666 5.41878 11.6573 5.38005 11.6386 5.34533C11.6199 5.3106 11.5945 5.27989 11.5624 5.25318L6.81886 1.68747C6.77612 1.65008 6.72537 1.63139 6.66661 1.63139C6.60784 1.63139 6.55709 1.65008 6.51436 1.68747L1.77077 5.25318C1.73873 5.27989 1.71335 5.3106 1.69465 5.34533C1.67595 5.38005 1.66661 5.41878 1.66661 5.46151V12.8333ZM0.416626 12.8333V5.46151C0.416626 5.223 0.46998 4.99704 0.576688 4.78364C0.683397 4.57024 0.830897 4.39449 1.01919 4.25641L5.76277 0.6827C6.02601 0.481839 6.32686 0.381409 6.66531 0.381409C7.00377 0.381409 7.30548 0.481839 7.57044 0.6827L12.314 4.25641C12.5023 4.39449 12.6498 4.57024 12.7565 4.78364C12.8632 4.99704 12.9166 5.223 12.9166 5.46151V12.8333C12.9166 13.1741 12.7935 13.4676 12.5472 13.7139C12.3009 13.9602 12.0074 14.0833 11.6666 14.0833H8.38136C8.16795 14.0833 7.98906 14.0111 7.84469 13.8667C7.70033 13.7224 7.62815 13.5435 7.62815 13.3301V9.13135H5.70506V13.3301C5.70506 13.5435 5.63288 13.7224 5.48852 13.8667C5.34415 14.0111 5.16526 14.0833 4.95186 14.0833H1.66661C1.3258 14.0833 1.03227 13.9602 0.786022 13.7139C0.539758 13.4676 0.416626 13.1741 0.416626 12.8333Z"/>
</svg>
