<svg width="22" height="14" viewBox="0 0 22 14" fill="currentColor" xmlns="http://www.w3.org/2000/svg">
<path d="M2.48079 13.5C1.87951 13.5 1.37983 13.3009 0.981743 12.9028C0.583677 12.5047 0.384644 12.0051 0.384644 11.4038V2.59618C0.384644 1.99489 0.583677 1.49521 0.981743 1.09713C1.37983 0.699042 1.87951 0.5 2.48079 0.5H11.2884C11.8897 0.5 12.3894 0.699042 12.7874 1.09713C13.1855 1.49521 13.3846 1.99489 13.3846 2.59618V11.4038C13.3846 12.0051 13.1855 12.5047 12.7874 12.9028C12.3894 13.3009 11.8897 13.5 11.2884 13.5H2.48079ZM1.88459 10.3885C2.61793 9.93588 3.40126 9.58492 4.23459 9.33555C5.06793 9.08618 5.95126 8.9615 6.88459 8.9615C7.81793 8.9615 8.70126 9.08618 9.53459 9.33555C10.3679 9.58492 11.1513 9.93588 11.8846 10.3885V2.59618C11.8846 2.42949 11.8269 2.28846 11.7115 2.17308C11.5961 2.05768 11.4551 1.99998 11.2884 1.99998H2.48079C2.31411 1.99998 2.17308 2.05768 2.05769 2.17308C1.94229 2.28846 1.88459 2.42949 1.88459 2.59618V10.3885ZM6.88459 10.4615C6.15639 10.4615 5.43524 10.5624 4.72112 10.7644C4.00702 10.9663 3.32624 11.2724 2.67879 11.6827C2.69803 11.7852 2.76054 11.8638 2.86632 11.9183C2.9721 11.9727 3.07949 12 3.18847 12H10.5807C10.6961 12 10.8035 11.9727 10.9029 11.9183C11.0023 11.8638 11.0808 11.7852 11.1385 11.6827C10.4975 11.2916 9.81508 10.9903 9.09134 10.7788C8.36763 10.5672 7.63204 10.4615 6.88459 10.4615ZM6.88459 8.09613C6.17306 8.09613 5.56249 7.84132 5.05287 7.3317C4.54327 6.82208 4.28847 6.21151 4.28847 5.49998C4.28847 4.78844 4.54327 4.17787 5.05287 3.66825C5.56249 3.15863 6.17306 2.90383 6.88459 2.90383C7.59613 2.90383 8.2067 3.15863 8.71632 3.66825C9.22594 4.17787 9.48074 4.78844 9.48074 5.49998C9.48074 6.21151 9.22594 6.82208 8.71632 7.3317C8.2067 7.84132 7.59613 8.09613 6.88459 8.09613ZM6.88459 6.68845C7.21473 6.68845 7.49534 6.57291 7.72644 6.34183C7.95754 6.11073 8.07309 5.83011 8.07309 5.49998C8.07309 5.16984 7.95754 4.88923 7.72644 4.65813C7.49534 4.42704 7.21473 4.3115 6.88459 4.3115C6.55446 4.3115 6.27385 4.42704 6.04277 4.65813C5.81167 4.88923 5.69612 5.16984 5.69612 5.49998C5.69612 5.83011 5.81167 6.11073 6.04277 6.34183C6.27385 6.57291 6.55446 6.68845 6.88459 6.68845ZM16.7496 13.5C16.537 13.5 16.359 13.4281 16.2154 13.2843C16.0718 13.1406 16 12.9625 16 12.75V1.25C16 1.0375 16.0719 0.859375 16.2157 0.715625C16.3595 0.571875 16.5377 0.5 16.7503 0.5C16.9629 0.5 17.141 0.571875 17.2846 0.715625C17.4282 0.859375 17.5 1.0375 17.5 1.25V12.75C17.5 12.9625 17.4281 13.1406 17.2842 13.2843C17.1404 13.4281 16.9622 13.5 16.7496 13.5ZM20.865 13.5C20.6524 13.5 20.4744 13.4281 20.3308 13.2843C20.1872 13.1406 20.1154 12.9625 20.1154 12.75V1.25C20.1154 1.0375 20.1873 0.859375 20.3311 0.715625C20.4749 0.571875 20.6531 0.5 20.8657 0.5C21.0783 0.5 21.2564 0.571875 21.4 0.715625C21.5436 0.859375 21.6153 1.0375 21.6153 1.25V12.75C21.6153 12.9625 21.5434 13.1406 21.3996 13.2843C21.2558 13.4281 21.0776 13.5 20.865 13.5Z"/>
</svg>
