<svg width="19" height="28" viewBox="0 0 19 17" fill="currentColor" xmlns="http://www.w3.org/2000/svg">
<path d="M2.42304 16.5801C2.0021 16.5801 1.64579 16.4343 1.35413 16.1426C1.06246 15.8509 0.916626 15.4946 0.916626 15.0737V7.30129C0.916626 7.12396 0.976459 6.97546 1.09613 6.85579C1.21578 6.73614 1.36428 6.67631 1.54163 6.67631C1.71897 6.67631 1.86747 6.73614 1.98713 6.85579C2.10678 6.97546 2.16661 7.12396 2.16661 7.30129V15.0737C2.16661 15.1378 2.19331 15.1966 2.24673 15.25C2.30016 15.3034 2.35893 15.3301 2.42304 15.3301H15.0833C15.2606 15.3301 15.4091 15.39 15.5288 15.5096C15.6484 15.6293 15.7082 15.7778 15.7082 15.9551C15.7082 16.1325 15.6484 16.2809 15.5288 16.4006C15.4091 16.5203 15.2606 16.5801 15.0833 16.5801H2.42304ZM5.33967 13.6635C4.91874 13.6635 4.56244 13.5176 4.27077 13.226C3.97911 12.9343 3.83327 12.578 3.83327 12.1571V4.41671C3.83327 4.20197 3.90512 4.02275 4.04881 3.87906C4.19251 3.73537 4.37173 3.66352 4.58648 3.66352H8.12815V2.17314C8.12815 1.75221 8.27398 1.39591 8.56565 1.10425C8.85731 0.812581 9.21361 0.666748 9.63454 0.666748H12.6153C13.0362 0.666748 13.3925 0.812581 13.6842 1.10425C13.9759 1.39591 14.1217 1.75221 14.1217 2.17314V3.66352H17.6634C17.8781 3.66352 18.0573 3.73537 18.201 3.87906C18.3447 4.02275 18.4166 4.20197 18.4166 4.41671V12.1571C18.4166 12.578 18.2708 12.9343 17.9791 13.226C17.6874 13.5176 17.3311 13.6635 16.9102 13.6635H5.33967ZM5.33967 12.4135H16.9102C16.9743 12.4135 17.0331 12.3868 17.0865 12.3334C17.1399 12.2799 17.1666 12.2212 17.1666 12.1571V4.91348H5.08325V12.1571C5.08325 12.2212 5.10996 12.2799 5.16338 12.3334C5.21679 12.3868 5.27556 12.4135 5.33967 12.4135ZM9.37813 3.66352H12.8717V2.17314C12.8717 2.10903 12.845 2.05027 12.7916 1.99685C12.7382 1.94342 12.6794 1.91671 12.6153 1.91671H9.63454C9.57045 1.91671 9.51168 1.94342 9.45825 1.99685C9.40483 2.05027 9.37813 2.10903 9.37813 2.17314V3.66352Z"/>
</svg>
