<svg width="14" height="9" viewBox="0 0 14 9" fill="none" xmlns="http://www.w3.org/2000/svg">
<path d="M2.08204 3.83335L4.79744 6.54875C4.89658 6.64788 4.94551 6.76391 4.94424 6.89682C4.94295 7.02972 4.8906 7.14787 4.78719 7.25128C4.68376 7.34787 4.56667 7.39787 4.4359 7.40128C4.30514 7.40471 4.18805 7.35471 4.08464 7.25128L1.08849 4.25514C1.0261 4.19275 0.98208 4.12693 0.956435 4.0577C0.930791 3.98848 0.917969 3.9137 0.917969 3.83335C0.917969 3.75301 0.930791 3.67822 0.956435 3.609C0.98208 3.53977 1.0261 3.47396 1.08849 3.41157L4.08464 0.415418C4.17694 0.323107 4.29125 0.275885 4.42757 0.273752C4.56389 0.271607 4.68376 0.318829 4.78719 0.415418C4.8906 0.518829 4.9423 0.637629 4.9423 0.771818C4.9423 0.905996 4.8906 1.0248 4.78719 1.12822L2.08204 3.83335ZM5.62047 4.33333L7.83587 6.54875C7.93501 6.64788 7.98395 6.76391 7.98267 6.89682C7.98139 7.02972 7.92904 7.14787 7.82562 7.25128C7.72221 7.34787 7.60512 7.39787 7.47435 7.40128C7.34359 7.40471 7.22649 7.35471 7.12307 7.25128L4.12692 4.25514C4.06453 4.19275 4.02051 4.12693 3.99487 4.0577C3.96924 3.98848 3.95642 3.9137 3.95642 3.83335C3.95642 3.75301 3.96924 3.67822 3.99487 3.609C4.02051 3.53977 4.06453 3.47396 4.12692 3.41157L7.12307 0.415418C7.21538 0.323107 7.3297 0.275885 7.46602 0.273752C7.60234 0.271607 7.72221 0.318829 7.82562 0.415418C7.92904 0.518829 7.98075 0.637629 7.98075 0.771818C7.98075 0.905996 7.92904 1.0248 7.82562 1.12822L5.62047 3.33337H10.1667C11.0419 3.33337 11.7884 3.64234 12.4064 4.26028C13.0243 4.87823 13.3333 5.62481 13.3333 6.50002V8.33333C13.3333 8.47521 13.2855 8.59401 13.1897 8.68974C13.094 8.78547 12.9752 8.83333 12.8333 8.83333C12.6914 8.83333 12.5726 8.78547 12.4769 8.68974C12.3812 8.59401 12.3333 8.47521 12.3333 8.33333V6.50002C12.3333 5.90173 12.1218 5.39104 11.6987 4.96795C11.2756 4.54487 10.765 4.33333 10.1667 4.33333H5.62047Z" fill="#3B82F6"/>
</svg>
