<svg width="17" height="19" viewBox="0 0 17 16" fill="currentColor" xmlns="http://www.w3.org/2000/svg">
<path d="M2.04802 15.2916C1.63242 15.2916 1.27746 15.1445 0.983126 14.8501C0.688793 14.5558 0.541626 14.2008 0.541626 13.7852V1.45677C0.541626 1.37023 0.579286 1.31093 0.654605 1.27887C0.729925 1.24683 0.799633 1.26286 0.86373 1.32696L1.46148 1.92471C1.53947 2.00269 1.62867 2.04168 1.72911 2.04168C1.82954 2.04168 1.91874 2.00269 1.99673 1.92471L2.83648 1.06412C2.91447 0.986136 3.00367 0.947144 3.10411 0.947144C3.20454 0.947144 3.29374 0.986136 3.37173 1.06412L4.23231 1.92471C4.3103 2.00269 4.39951 2.04168 4.49994 2.04168C4.60037 2.04168 4.68958 2.00269 4.76756 1.92471L5.62815 1.06412C5.70613 0.986136 5.79534 0.947144 5.89577 0.947144C5.9962 0.947144 6.08541 0.986136 6.1634 1.06412L7.00315 1.92471C7.08113 2.00269 7.17034 2.04168 7.27077 2.04168C7.3712 2.04168 7.46041 2.00269 7.5384 1.92471L8.39898 1.06412C8.47697 0.986136 8.56618 0.947144 8.66661 0.947144C8.76704 0.947144 8.85624 0.986136 8.93423 1.06412L9.79481 1.92471C9.8728 2.00269 9.96201 2.04168 10.0624 2.04168C10.1629 2.04168 10.2521 2.00269 10.3301 1.92471L11.1698 1.06412C11.2478 0.986136 11.337 0.947144 11.4374 0.947144C11.5379 0.947144 11.6271 0.986136 11.7051 1.06412L12.5656 1.92471C12.6436 2.00269 12.7328 2.04168 12.8333 2.04168C12.9337 2.04168 13.0229 2.00269 13.1009 1.92471L13.9615 1.06412C14.0395 0.986136 14.1287 0.947144 14.2291 0.947144C14.3295 0.947144 14.4187 0.986136 14.4967 1.06412L15.3365 1.92471C15.4145 2.00269 15.5037 2.04168 15.6041 2.04168C15.7045 2.04168 15.7937 2.00269 15.8717 1.92471L16.4695 1.32696C16.5336 1.26286 16.6033 1.24683 16.6786 1.27887C16.7539 1.31093 16.7916 1.37023 16.7916 1.45677V13.7852C16.7916 14.2008 16.6444 14.5558 16.3501 14.8501C16.0558 15.1445 15.7008 15.2916 15.2852 15.2916H2.04802ZM2.04802 14.0417H8.04163V8.62498H1.79158V13.7852C1.79158 13.86 1.81563 13.9215 1.86371 13.9696C1.91179 14.0176 1.97323 14.0417 2.04802 14.0417ZM9.29158 14.0417H15.2852C15.36 14.0417 15.4214 14.0176 15.4695 13.9696C15.5176 13.9215 15.5416 13.86 15.5416 13.7852V11.9583H9.29158V14.0417ZM9.29158 10.7084H15.5416V8.62498H9.29158V10.7084ZM1.79158 7.37502H15.5416V4.37819H1.79158V7.37502Z"/>
</svg>
