<svg width="19" height="24" viewBox="0 0 20 9" fill="currentColor" xmlns="http://www.w3.org/2000/svg">
<path d="M3.22431 5.44714L4.99994 3.67153L3.22431 1.89591L1.44869 3.67153L3.22431 5.44714ZM14.3461 5.1058L16.1249 2.25326L17.9118 5.1058H14.3461ZM0.804438 8.82372C0.600132 8.82372 0.428862 8.75461 0.290625 8.61639C0.152417 8.47816 0.083313 8.30689 0.083313 8.10257V7.80772C0.083313 7.24468 0.369841 6.78848 0.942896 6.43914C1.51597 6.08977 2.27138 5.91509 3.20913 5.91509C3.37843 5.91509 3.53894 5.9207 3.69065 5.93193C3.84237 5.94314 3.98927 5.96263 4.13136 5.99041C3.97292 6.2342 3.85693 6.49627 3.78338 6.77661C3.70982 7.05696 3.67304 7.35377 3.67304 7.66703V8.82372H0.804438ZM5.83981 8.82372C5.62287 8.82372 5.44255 8.75154 5.29885 8.60718C5.15515 8.46282 5.08329 8.28393 5.08329 8.07051V7.69874C5.08329 6.9028 5.50503 6.26097 6.34852 5.77326C7.19199 5.28555 8.29697 5.0417 9.66344 5.0417C11.0427 5.0417 12.1519 5.28555 12.9911 5.77326C13.8303 6.26097 14.2499 6.9028 14.2499 7.69874V8.07051C14.2499 8.28393 14.1777 8.46282 14.0334 8.60718C13.889 8.75154 13.7101 8.82372 13.4967 8.82372H5.83981ZM15.6602 8.82372V7.66703C15.6602 7.35377 15.6206 7.05696 15.5414 6.77661C15.4621 6.49627 15.349 6.2342 15.2019 5.99041C15.3439 5.96263 15.4906 5.94314 15.6418 5.93193C15.793 5.9207 15.954 5.91509 16.1249 5.91509C17.0624 5.91509 17.8176 6.08977 18.3905 6.43914C18.9635 6.78848 19.2499 7.24468 19.2499 7.80772V8.10257C19.2499 8.30689 19.1808 8.47816 19.0426 8.61639C18.9044 8.75461 18.7331 8.82372 18.5288 8.82372H15.6602ZM9.6666 6.29168C8.7948 6.29168 8.04907 6.41 7.42942 6.64666C6.80976 6.8833 6.46575 7.16561 6.39738 7.49361V7.57374H12.9358V7.49361C12.8589 7.15707 12.5128 6.87261 11.8974 6.64024C11.282 6.40786 10.5384 6.29168 9.6666 6.29168ZM9.6666 4.4167C9.06565 4.4167 8.55483 4.20636 8.13417 3.7857C7.7135 3.36503 7.50317 2.85422 7.50317 2.25326C7.50317 1.65232 7.7135 1.14151 8.13417 0.720843C8.55483 0.300176 9.06565 0.0898438 9.6666 0.0898438C10.2676 0.0898438 10.7784 0.300176 11.199 0.720843C11.6197 1.14151 11.83 1.65232 11.83 2.25326C11.83 2.85422 11.6197 3.36503 11.199 3.7857C10.7784 4.20636 10.2676 4.4167 9.6666 4.4167ZM9.668 1.3398C9.40958 1.3398 9.1925 1.4272 9.01675 1.60201C8.84101 1.77683 8.75315 1.99345 8.75315 2.25186C8.75315 2.51028 8.84055 2.72736 9.01535 2.90311C9.19016 3.07886 9.40678 3.16674 9.66521 3.16674C9.92363 3.16674 10.1407 3.07934 10.3165 2.90453C10.4922 2.72971 10.5801 2.51309 10.5801 2.25468C10.5801 1.99626 10.4927 1.77918 10.3179 1.60343C10.143 1.42768 9.92643 1.3398 9.668 1.3398Z"/>
</svg>
