<svg width="18" height="18" viewBox="0 0 18 18" fill="none" xmlns="http://www.w3.org/2000/svg">
<path d="M9.00002 6.08332C9.00002 5.62309 8.62693 5.24999 8.16669 5.24999C7.70645 5.24999 7.33335 5.62309 7.33335 6.08332V10.25C7.33335 10.7102 7.70645 11.0833 8.16669 11.0833H10.6667C11.1269 11.0833 11.5 10.7102 11.5 10.25C11.5 9.78975 11.1269 9.41666 10.6667 9.41666H9.00002V6.08332Z" fill="#667185"/>
<path fill-rule="evenodd" clip-rule="evenodd" d="M9.00002 0.666656C4.39765 0.666656 0.666687 4.39762 0.666687 8.99999C0.666687 13.6024 4.39765 17.3333 9.00002 17.3333C13.6024 17.3333 17.3334 13.6024 17.3334 8.99999C17.3334 4.39762 13.6024 0.666656 9.00002 0.666656ZM2.33335 8.99999C2.33335 5.31809 5.31812 2.33332 9.00002 2.33332C12.6819 2.33332 15.6667 5.31809 15.6667 8.99999C15.6667 12.6819 12.6819 15.6667 9.00002 15.6667C5.31812 15.6667 2.33335 12.6819 2.33335 8.99999Z" fill="#667185"/>
</svg>
